<svg xmlns="http://www.w3.org/2000/svg" aria-hidden="true" style="position:absolute;width:0;height:0;overflow:hidden">
  <defs>
    <symbol id="logo" viewBox="0 0 32 32">
      <path d="M26.18 7.76l0.001-0.003 0.003 0.003h-0.004zM15.997 24.245l0.003-0.003 0.003 0.003h-0.005zM26.181 3.049l-2.909 4.708 0.003 0.003h-0.004l-7.271 11.775h-5.819l5.819 9.419 1.455-2.355 1.452-2.353 0.003-0.003 1.455-2.353 1.453-2.355v-0.003l10.183-16.483h-5.819z" />
      <path d="M5.819 7.757l0.001 0.003h-0.004l0.003-0.003zM10.181 10.113l-1.452-2.353h-0.005l0.003-0.003-2.908-4.707h-5.819l7.272 11.773 8.728-0.003 2.909-4.708h-8.728z" />
    </symbol>
    <symbol id="location" viewBox="0 0 24 24">
      <path d="M12 11.484q1.031 0 1.758-0.727t0.727-1.758-0.727-1.758-1.758-0.727-1.758 0.727-0.727 1.758 0.727 1.758 1.758 0.727zM12 2.016q2.906 0 4.945 2.039t2.039 4.945q0 1.453-0.727 3.328t-1.758 3.516-2.039 3.070-1.711 2.273l-0.75 0.797q-0.281-0.328-0.75-0.867t-1.688-2.156-2.133-3.141-1.664-3.445-0.75-3.375q0-2.906 2.039-4.945t4.945-2.039z" />
    </symbol>
    <symbol id="mobile" viewBox="0 0 24 24">
      <path d="M17.016 18.984v-13.969h-10.031v13.969h10.031zM17.016 1.031q0.797 0 1.383 0.586t0.586 1.383v18q0 0.797-0.586 1.406t-1.383 0.609h-10.031q-0.797 0-1.383-0.609t-0.586-1.406v-18q0-0.797 0.586-1.406t1.383-0.609z" />
    </symbol>
    <symbol id="email" viewBox="0 0 24 24">
      <path d="M12 11.016l8.016-5.016h-16.031zM20.016 18v-9.984l-8.016 4.969-8.016-4.969v9.984h16.031zM20.016 3.984q0.797 0 1.383 0.609t0.586 1.406v12q0 0.797-0.586 1.406t-1.383 0.609h-16.031q-0.797 0-1.383-0.609t-0.586-1.406v-12q0-0.797 0.586-1.406t1.383-0.609h16.031z" />
    </symbol>
    <symbol id="right" viewBox="0 0 32 32">
      <path d="m18 5.419 10.183 10.183L18 25.785l2.263 2.263 11.313-11.313a1.6 1.6 0 0 0 0-2.263L20.263 3.157 18 5.42z"/>
      <path d="M.028 17.201h29.305v-3.2H.028v3.2z"/>
    </symbol>
    <symbol id="prev" viewBox="0 0 24 24">
      <path d="M17.185,4.349l-7.636,7.636c-0,0 7.636,7.637 7.636,7.637l-1.697,1.697l-8.485,-8.485c-0.225,-0.225 -0.351,-0.53 -0.351,-0.849c-0,-0.318 0.126,-0.623 0.351,-0.848l8.485,-8.486l1.697,1.698Z" />
    </symbol>
    <symbol id="next" viewBox="0 0 24 24" >
      <path d="M6.652,4.349l7.636,7.636c0,0 -7.636,7.637 -7.636,7.637l1.697,1.697l8.485,-8.485c0.225,-0.225 0.351,-0.53 0.351,-0.849c0,-0.318 -0.126,-0.623 -0.351,-0.848l-8.485,-8.486l-1.697,1.698Z" />
    </symbol>
  </defs>
</svg>
