<?xml version="1.0" encoding="UTF-8" standalone="no"?><!DOCTYPE svg PUBLIC "-//W3C//DTD SVG 1.1//EN" "http://www.w3.org/Graphics/SVG/1.1/DTD/svg11.dtd"><svg width="100%" height="100%" viewBox="0 0 128 128" version="1.1" xmlns="http://www.w3.org/2000/svg" xmlns:xlink="http://www.w3.org/1999/xlink" xml:space="preserve" xmlns:serif="http://www.serif.com/" style="fill-rule:evenodd;clip-rule:evenodd;stroke-linejoin:round;stroke-miterlimit:2;"><g id="Layer-1" serif:id="Layer 1"><path d="M104.72,31.04l0.005,-0.011l0.011,0.011l-0.016,0Zm-40.731,65.941l0.011,-0.01l0.011,0.01l-0.022,0Zm40.736,-84.784l-5.818,9.419l-5.819,9.413l0.011,0.011l-0.016,0l-5.814,9.413l-11.632,18.832l0,0.011l-11.637,18.832l0,0.011l-23.275,0l5.819,9.418l5.819,9.414l0.01,0.01l5.808,9.414l5.819,9.418l5.819,-9.418l5.808,-9.414l0.01,-0.01l5.819,-9.414l5.813,-9.418l0,-0.011l11.638,-18.832l0,-0.011l11.637,-18.832l5.808,-9.413l0.011,-0.011l5.818,-9.413l5.819,-9.419l-23.275,0Z" style="fill:#f16336;fill-rule:nonzero;"/><path d="M23.275,31.029l0.005,0.011l-0.016,0l0.011,-0.011Zm17.45,9.424l-5.808,-9.413l-0.021,0l0.011,-0.011l-5.819,-9.413l-5.813,-9.413l-23.275,0l11.637,18.826l0.006,0.011l5.813,9.413l11.632,18.832l0,0.011l34.912,0l0,-0.011l11.637,-18.832l-34.912,0Z" style="fill:#f16336;fill-rule:nonzero;"/></g></svg>