<svg xmlns="http://www.w3.org/2000/svg" aria-hidden="true" style="position:absolute;width:0;height:0;overflow:hidden">
  <defs>
    <symbol id="logo" viewBox="0 0 32 32">
      <path d="M26.18 7.76l0.001-0.003 0.003 0.003h-0.004zM15.997 24.245l0.003-0.003 0.003 0.003h-0.005zM26.181 3.049l-2.909 4.708 0.003 0.003h-0.004l-7.271 11.775h-5.819l5.819 9.419 1.455-2.355 1.452-2.353 0.003-0.003 1.455-2.353 1.453-2.355v-0.003l10.183-16.483h-5.819z"></path>
      <path d="M5.819 7.757l0.001 0.003h-0.004l0.003-0.003zM10.181 10.113l-1.452-2.353h-0.005l0.003-0.003-2.908-4.707h-5.819l7.272 11.773 8.728-0.003 2.909-4.708h-8.728z"></path>
</symbol>
    <symbol id="back-arrow" viewBox="0 0 32 32">
      <path d="M20.783 3.533 9.468 14.846a1.602 1.602 0 0 0 0 2.263l11.315 11.315 2.263-2.263-10.183-10.183L23.046 5.795l-2.263-2.263z"/>
    </symbol>
    <symbol id="right-arrow" viewBox="0 0 32 32">
      <path d="m18 5.419 10.183 10.183L18 25.785l2.263 2.263 11.313-11.313a1.6 1.6 0 0 0 0-2.263L20.263 3.157 18 5.42z"/>
      <path d="M.028 17.201h29.305v-3.2H.028v3.2z"/>
    </symbol>
  </defs>
</svg>
