<?xml version="1.0" standalone="no"?>
<!DOCTYPE svg PUBLIC "-//W3C//DTD SVG 20010904//EN"
 "http://www.w3.org/TR/2001/REC-SVG-20010904/DTD/svg10.dtd">
<svg version="1.0" xmlns="http://www.w3.org/2000/svg"
 width="700.000000pt" height="700.000000pt" viewBox="0 0 700.000000 700.000000"
 preserveAspectRatio="xMidYMid meet">
<metadata>
Created by potrace 1.14, written by Peter Selinger 2001-2017
</metadata>
<g transform="translate(0.000000,700.000000) scale(0.100000,-0.100000)"
fill="#000000" stroke="none">
<path d="M0 6334 c0 -2 137 -223 706 -1144 46 -74 88 -140 94 -147 5 -7 10
-14 10 -17 0 -2 18 -33 39 -67 40 -65 139 -225 176 -286 11 -18 65 -105 120
-193 55 -89 109 -176 120 -194 87 -144 111 -181 117 -184 5 -2 8 -8 8 -12 0
-14 180 -303 199 -320 15 -13 134 -15 957 -13 516 1 942 2 946 2 7 1 88 118
88 127 0 3 24 42 53 87 28 45 57 89 62 99 15 25 91 149 270 438 86 140 160
261 162 267 4 10 -157 13 -749 12 -414 0 -843 0 -953 1 l-200 0 -210 340
c-115 187 -214 348 -220 358 -5 9 -46 76 -91 147 -45 72 -159 256 -254 410
-95 154 -174 282 -176 283 -2 4 -1274 9 -1274 6z"/>
<path d="M5745 6332 c-18 -2 -88 -107 -258 -386 -7 -11 -41 -67 -77 -126 -36
-59 -70 -115 -77 -126 -47 -77 -302 -489 -328 -529 -34 -53 -287 -463 -320
-519 -11 -18 -123 -200 -250 -404 -126 -205 -235 -380 -240 -389 -6 -10 -17
-29 -26 -43 -9 -14 -54 -86 -99 -160 -46 -74 -112 -181 -146 -237 -35 -57 -94
-151 -130 -210 -37 -60 -81 -131 -98 -158 -17 -28 -36 -59 -43 -70 -73 -121
-147 -236 -156 -242 -6 -3 -291 -7 -633 -7 -342 -1 -625 -3 -627 -6 -3 -3 9
-27 27 -55 18 -27 69 -108 113 -180 44 -71 116 -187 159 -258 43 -70 86 -140
95 -155 53 -89 679 -1099 687 -1107 5 -6 11 -15 13 -21 12 -30 165 -272 170
-268 9 5 558 890 611 984 11 19 26 42 32 50 11 13 80 125 111 178 16 29 556
904 581 942 21 34 265 427 649 1050 100 162 260 421 355 575 95 154 237 384
315 510 654 1061 682 1105 760 1230 56 89 75 122 75 131 0 8 -1193 14 -1245 6z"/>
</g>
</svg>
